<mxfile host="Electron" agent="Mozilla/5.0 (Windows NT 10.0; Win64; x64) AppleWebKit/537.36 (KHTML, like Gecko) draw.io/27.0.9 Chrome/134.0.6998.205 Electron/35.4.0 Safari/537.36" version="27.0.9">
  <diagram name="Pagina-1" id="IO72nUoh3hYoswCz1FrB">
    <mxGraphModel dx="1793" dy="914" grid="1" gridSize="10" guides="1" tooltips="1" connect="1" arrows="1" fold="1" page="1" pageScale="1" pageWidth="827" pageHeight="1169" math="0" shadow="1">
      <root>
        <mxCell id="0" />
        <mxCell id="1" parent="0" />
        <mxCell id="X9CcGSQdcjv7YNDz8xj4-1" value="Chef" style="whiteSpace=wrap;html=1;align=center;shadow=1;" parent="1" vertex="1">
          <mxGeometry x="359.9999999999999" y="110" width="100" height="40" as="geometry" />
        </mxCell>
        <mxCell id="X9CcGSQdcjv7YNDz8xj4-2" value="idChef" style="ellipse;whiteSpace=wrap;html=1;align=center;fontStyle=4;shadow=1;strokeColor=default;verticalAlign=middle;fontFamily=Helvetica;fontSize=12;fontColor=default;fillColor=default;" parent="1" vertex="1">
          <mxGeometry x="199.99999999999994" y="110" width="100" height="40" as="geometry" />
        </mxCell>
        <mxCell id="X9CcGSQdcjv7YNDz8xj4-3" value="password" style="ellipse;whiteSpace=wrap;html=1;align=center;shadow=1;strokeColor=default;verticalAlign=middle;fontFamily=Helvetica;fontSize=12;fontColor=default;fillColor=default;" parent="1" vertex="1">
          <mxGeometry x="530" y="110" width="100" height="40" as="geometry" />
        </mxCell>
        <mxCell id="X9CcGSQdcjv7YNDz8xj4-4" value="username" style="ellipse;whiteSpace=wrap;html=1;align=center;shadow=1;strokeColor=default;verticalAlign=middle;fontFamily=Helvetica;fontSize=12;fontColor=default;fillColor=default;" parent="1" vertex="1">
          <mxGeometry x="510" y="50" width="100" height="40" as="geometry" />
        </mxCell>
        <mxCell id="X9CcGSQdcjv7YNDz8xj4-5" value="cognome" style="ellipse;whiteSpace=wrap;html=1;align=center;shadow=1;strokeColor=default;verticalAlign=middle;fontFamily=Helvetica;fontSize=12;fontColor=default;fillColor=default;" parent="1" vertex="1">
          <mxGeometry x="220" y="50" width="100" height="40" as="geometry" />
        </mxCell>
        <mxCell id="X9CcGSQdcjv7YNDz8xj4-6" value="nome" style="ellipse;whiteSpace=wrap;html=1;align=center;shadow=1;strokeColor=default;verticalAlign=middle;fontFamily=Helvetica;fontSize=12;fontColor=default;fillColor=default;" parent="1" vertex="1">
          <mxGeometry x="360" y="20" width="100" height="40" as="geometry" />
        </mxCell>
        <mxCell id="X9CcGSQdcjv7YNDz8xj4-9" value="Utente" style="whiteSpace=wrap;html=1;align=center;shadow=1;strokeColor=default;verticalAlign=middle;fontFamily=Helvetica;fontSize=12;fontColor=default;fillColor=default;direction=east;flipH=0;flipV=1;" parent="1" vertex="1">
          <mxGeometry x="190" y="280" width="100" height="40" as="geometry" />
        </mxCell>
        <mxCell id="X9CcGSQdcjv7YNDz8xj4-10" value="idUtente" style="ellipse;whiteSpace=wrap;html=1;align=center;fontStyle=4;shadow=1;strokeColor=default;verticalAlign=middle;fontFamily=Helvetica;fontSize=12;fontColor=default;fillColor=default;direction=east;flipH=0;flipV=1;" parent="1" vertex="1">
          <mxGeometry x="190" y="180" width="100" height="40" as="geometry" />
        </mxCell>
        <mxCell id="X9CcGSQdcjv7YNDz8xj4-11" value="password" style="ellipse;whiteSpace=wrap;html=1;align=center;shadow=1;strokeColor=default;verticalAlign=middle;fontFamily=Helvetica;fontSize=12;fontColor=default;fillColor=default;direction=east;flipH=0;flipV=1;" parent="1" vertex="1">
          <mxGeometry x="45" y="340" width="100" height="40" as="geometry" />
        </mxCell>
        <mxCell id="X9CcGSQdcjv7YNDz8xj4-12" value="username" style="ellipse;whiteSpace=wrap;html=1;align=center;shadow=1;strokeColor=default;verticalAlign=middle;fontFamily=Helvetica;fontSize=12;fontColor=default;fillColor=default;direction=east;flipH=0;flipV=1;" parent="1" vertex="1">
          <mxGeometry x="30" y="290" width="100" height="40" as="geometry" />
        </mxCell>
        <mxCell id="X9CcGSQdcjv7YNDz8xj4-13" value="cognome" style="ellipse;whiteSpace=wrap;html=1;align=center;shadow=1;strokeColor=default;verticalAlign=middle;fontFamily=Helvetica;fontSize=12;fontColor=default;fillColor=default;direction=east;flipH=0;flipV=1;" parent="1" vertex="1">
          <mxGeometry x="80" y="190" width="100" height="40" as="geometry" />
        </mxCell>
        <mxCell id="X9CcGSQdcjv7YNDz8xj4-14" value="nome" style="ellipse;whiteSpace=wrap;html=1;align=center;shadow=1;strokeColor=default;verticalAlign=middle;fontFamily=Helvetica;fontSize=12;fontColor=default;fillColor=default;direction=east;flipH=0;flipV=1;" parent="1" vertex="1">
          <mxGeometry x="30" y="240" width="100" height="40" as="geometry" />
        </mxCell>
        <mxCell id="X9CcGSQdcjv7YNDz8xj4-16" value="Corso" style="whiteSpace=wrap;html=1;align=center;shadow=1;strokeColor=default;verticalAlign=middle;fontFamily=Helvetica;fontSize=12;fontColor=default;fillColor=default;" parent="1" vertex="1">
          <mxGeometry x="360" y="280" width="100" height="40" as="geometry" />
        </mxCell>
        <mxCell id="X9CcGSQdcjv7YNDz8xj4-17" value="idCorso" style="ellipse;whiteSpace=wrap;html=1;align=center;fontStyle=4;shadow=1;strokeColor=default;verticalAlign=middle;fontFamily=Helvetica;fontSize=12;fontColor=default;fillColor=default;" parent="1" vertex="1">
          <mxGeometry x="620" y="180" width="100" height="40" as="geometry" />
        </mxCell>
        <mxCell id="X9CcGSQdcjv7YNDz8xj4-18" value="categoria" style="ellipse;whiteSpace=wrap;html=1;align=center;shadow=1;strokeColor=default;verticalAlign=middle;fontFamily=Helvetica;fontSize=12;fontColor=default;fillColor=default;" parent="1" vertex="1">
          <mxGeometry x="620" y="380" width="100" height="40" as="geometry" />
        </mxCell>
        <mxCell id="X9CcGSQdcjv7YNDz8xj4-19" value="frequenza" style="ellipse;whiteSpace=wrap;html=1;align=center;shadow=1;strokeColor=default;verticalAlign=middle;fontFamily=Helvetica;fontSize=12;fontColor=default;fillColor=default;" parent="1" vertex="1">
          <mxGeometry x="620" y="230" width="100" height="40" as="geometry" />
        </mxCell>
        <mxCell id="X9CcGSQdcjv7YNDz8xj4-23" value="dataInizio" style="ellipse;whiteSpace=wrap;html=1;align=center;shadow=1;strokeColor=default;verticalAlign=middle;fontFamily=Helvetica;fontSize=12;fontColor=default;fillColor=default;" parent="1" vertex="1">
          <mxGeometry x="620" y="280" width="100" height="40" as="geometry" />
        </mxCell>
        <mxCell id="X9CcGSQdcjv7YNDz8xj4-24" value="numeroSessioni" style="ellipse;whiteSpace=wrap;html=1;align=center;shadow=1;strokeColor=default;verticalAlign=middle;fontFamily=Helvetica;fontSize=12;fontColor=default;fillColor=default;" parent="1" vertex="1">
          <mxGeometry x="620" y="330" width="100" height="40" as="geometry" />
        </mxCell>
        <mxCell id="X9CcGSQdcjv7YNDz8xj4-28" value="" style="endArrow=none;html=1;rounded=0;fontFamily=Helvetica;fontSize=12;fontColor=default;" parent="1" source="X9CcGSQdcjv7YNDz8xj4-1" target="X9CcGSQdcjv7YNDz8xj4-2" edge="1">
          <mxGeometry relative="1" as="geometry">
            <mxPoint x="300.15" y="370" as="sourcePoint" />
            <mxPoint x="460.1499999999999" y="370" as="targetPoint" />
          </mxGeometry>
        </mxCell>
        <mxCell id="X9CcGSQdcjv7YNDz8xj4-29" value="" style="endArrow=none;html=1;rounded=0;fontFamily=Helvetica;fontSize=12;fontColor=default;" parent="1" source="X9CcGSQdcjv7YNDz8xj4-9" target="X9CcGSQdcjv7YNDz8xj4-14" edge="1">
          <mxGeometry relative="1" as="geometry">
            <mxPoint x="170" y="267.2222222222222" as="sourcePoint" />
            <mxPoint x="399.9999999999982" y="66.13702132662365" as="targetPoint" />
          </mxGeometry>
        </mxCell>
        <mxCell id="X9CcGSQdcjv7YNDz8xj4-30" value="" style="endArrow=none;html=1;rounded=0;fontFamily=Helvetica;fontSize=12;fontColor=default;" parent="1" source="X9CcGSQdcjv7YNDz8xj4-13" target="X9CcGSQdcjv7YNDz8xj4-9" edge="1">
          <mxGeometry relative="1" as="geometry">
            <mxPoint x="270" y="38.56953381770518" as="sourcePoint" />
            <mxPoint x="430" y="38.56953381770518" as="targetPoint" />
          </mxGeometry>
        </mxCell>
        <mxCell id="X9CcGSQdcjv7YNDz8xj4-31" value="" style="endArrow=none;html=1;rounded=0;fontFamily=Helvetica;fontSize=12;fontColor=default;" parent="1" source="X9CcGSQdcjv7YNDz8xj4-9" target="X9CcGSQdcjv7YNDz8xj4-11" edge="1">
          <mxGeometry relative="1" as="geometry">
            <mxPoint x="270" y="225.0711774223737" as="sourcePoint" />
            <mxPoint x="430" y="225.0711774223737" as="targetPoint" />
          </mxGeometry>
        </mxCell>
        <mxCell id="X9CcGSQdcjv7YNDz8xj4-32" value="" style="endArrow=none;html=1;rounded=0;fontFamily=Helvetica;fontSize=12;fontColor=default;" parent="1" source="X9CcGSQdcjv7YNDz8xj4-1" target="X9CcGSQdcjv7YNDz8xj4-3" edge="1">
          <mxGeometry relative="1" as="geometry">
            <mxPoint x="300.15" y="370" as="sourcePoint" />
            <mxPoint x="460.1499999999999" y="370" as="targetPoint" />
          </mxGeometry>
        </mxCell>
        <mxCell id="X9CcGSQdcjv7YNDz8xj4-33" value="" style="endArrow=none;html=1;rounded=0;fontFamily=Helvetica;fontSize=12;fontColor=default;" parent="1" source="X9CcGSQdcjv7YNDz8xj4-1" target="X9CcGSQdcjv7YNDz8xj4-4" edge="1">
          <mxGeometry relative="1" as="geometry">
            <mxPoint x="300.15" y="370" as="sourcePoint" />
            <mxPoint x="460.1499999999999" y="370" as="targetPoint" />
          </mxGeometry>
        </mxCell>
        <mxCell id="X9CcGSQdcjv7YNDz8xj4-34" value="" style="endArrow=none;html=1;rounded=0;fontFamily=Helvetica;fontSize=12;fontColor=default;" parent="1" source="X9CcGSQdcjv7YNDz8xj4-1" target="X9CcGSQdcjv7YNDz8xj4-6" edge="1">
          <mxGeometry relative="1" as="geometry">
            <mxPoint x="300.15" y="370" as="sourcePoint" />
            <mxPoint x="460.1499999999999" y="370" as="targetPoint" />
          </mxGeometry>
        </mxCell>
        <mxCell id="X9CcGSQdcjv7YNDz8xj4-35" value="" style="endArrow=none;html=1;rounded=0;fontFamily=Helvetica;fontSize=12;fontColor=default;" parent="1" source="X9CcGSQdcjv7YNDz8xj4-1" target="X9CcGSQdcjv7YNDz8xj4-5" edge="1">
          <mxGeometry relative="1" as="geometry">
            <mxPoint x="300.15" y="370" as="sourcePoint" />
            <mxPoint x="460.1499999999999" y="370" as="targetPoint" />
          </mxGeometry>
        </mxCell>
        <mxCell id="X9CcGSQdcjv7YNDz8xj4-36" value="" style="endArrow=none;html=1;rounded=0;fontFamily=Helvetica;fontSize=12;fontColor=default;" parent="1" source="X9CcGSQdcjv7YNDz8xj4-9" target="X9CcGSQdcjv7YNDz8xj4-10" edge="1">
          <mxGeometry relative="1" as="geometry">
            <mxPoint x="270" y="20" as="sourcePoint" />
            <mxPoint x="430" y="20" as="targetPoint" />
          </mxGeometry>
        </mxCell>
        <mxCell id="X9CcGSQdcjv7YNDz8xj4-37" value="" style="endArrow=none;html=1;rounded=0;fontFamily=Helvetica;fontSize=12;fontColor=default;" parent="1" source="X9CcGSQdcjv7YNDz8xj4-12" target="X9CcGSQdcjv7YNDz8xj4-9" edge="1">
          <mxGeometry relative="1" as="geometry">
            <mxPoint x="240" y="131" as="sourcePoint" />
            <mxPoint x="170" y="282.5" as="targetPoint" />
          </mxGeometry>
        </mxCell>
        <mxCell id="X9CcGSQdcjv7YNDz8xj4-39" value="Gestione" style="shape=rhombus;perimeter=rhombusPerimeter;whiteSpace=wrap;html=1;align=center;shadow=1;strokeColor=default;verticalAlign=middle;fontFamily=Helvetica;fontSize=12;fontColor=default;fillColor=default;" parent="1" vertex="1">
          <mxGeometry x="350" y="180" width="120" height="60" as="geometry" />
        </mxCell>
        <mxCell id="X9CcGSQdcjv7YNDz8xj4-40" value="Iscrizione" style="shape=rhombus;perimeter=rhombusPerimeter;whiteSpace=wrap;html=1;align=center;shadow=1;strokeColor=default;verticalAlign=middle;fontFamily=Helvetica;fontSize=12;fontColor=default;fillColor=default;" parent="1" vertex="1">
          <mxGeometry x="270" y="410" width="120" height="60" as="geometry" />
        </mxCell>
        <mxCell id="X9CcGSQdcjv7YNDz8xj4-41" value="" style="endArrow=none;html=1;rounded=0;fontFamily=Helvetica;fontSize=12;fontColor=default;exitX=0.5;exitY=0;exitDx=0;exitDy=0;" parent="1" source="X9CcGSQdcjv7YNDz8xj4-40" target="X9CcGSQdcjv7YNDz8xj4-9" edge="1">
          <mxGeometry relative="1" as="geometry">
            <mxPoint x="281" y="356" as="sourcePoint" />
            <mxPoint x="430" y="540" as="targetPoint" />
          </mxGeometry>
        </mxCell>
        <mxCell id="X9CcGSQdcjv7YNDz8xj4-42" value="" style="endArrow=none;html=1;rounded=0;fontFamily=Helvetica;fontSize=12;fontColor=default;" parent="1" source="X9CcGSQdcjv7YNDz8xj4-39" target="X9CcGSQdcjv7YNDz8xj4-1" edge="1">
          <mxGeometry relative="1" as="geometry">
            <mxPoint x="433.3478721151809" y="189.67393605759048" as="sourcePoint" />
            <mxPoint x="400.15" y="360" as="targetPoint" />
          </mxGeometry>
        </mxCell>
        <mxCell id="X9CcGSQdcjv7YNDz8xj4-44" value="" style="endArrow=none;html=1;rounded=0;fontFamily=Helvetica;fontSize=12;fontColor=default;exitX=0.5;exitY=0;exitDx=0;exitDy=0;" parent="1" source="X9CcGSQdcjv7YNDz8xj4-40" target="X9CcGSQdcjv7YNDz8xj4-16" edge="1">
          <mxGeometry relative="1" as="geometry">
            <mxPoint x="330" y="370" as="sourcePoint" />
            <mxPoint x="490" y="370" as="targetPoint" />
          </mxGeometry>
        </mxCell>
        <mxCell id="X9CcGSQdcjv7YNDz8xj4-49" value="Sessione" style="whiteSpace=wrap;html=1;align=center;shadow=1;strokeColor=default;verticalAlign=middle;fontFamily=Helvetica;fontSize=12;fontColor=default;fillColor=default;" parent="1" vertex="1">
          <mxGeometry x="360" y="530" width="100" height="40" as="geometry" />
        </mxCell>
        <mxCell id="X9CcGSQdcjv7YNDz8xj4-50" value="idSessione" style="ellipse;whiteSpace=wrap;html=1;align=center;fontStyle=4;shadow=1;strokeColor=default;verticalAlign=middle;fontFamily=Helvetica;fontSize=12;fontColor=default;fillColor=default;" parent="1" vertex="1">
          <mxGeometry x="610" y="470" width="100" height="40" as="geometry" />
        </mxCell>
        <mxCell id="X9CcGSQdcjv7YNDz8xj4-54" value="numeroSessione" style="ellipse;whiteSpace=wrap;html=1;align=center;shadow=1;strokeColor=default;verticalAlign=middle;fontFamily=Helvetica;fontSize=12;fontColor=default;fillColor=default;" parent="1" vertex="1">
          <mxGeometry x="610" y="530" width="100" height="40" as="geometry" />
        </mxCell>
        <mxCell id="X9CcGSQdcjv7YNDz8xj4-55" value="dataSessione" style="ellipse;whiteSpace=wrap;html=1;align=center;shadow=1;strokeColor=default;verticalAlign=middle;fontFamily=Helvetica;fontSize=12;fontColor=default;fillColor=default;" parent="1" vertex="1">
          <mxGeometry x="610" y="590" width="100" height="40" as="geometry" />
        </mxCell>
        <mxCell id="X9CcGSQdcjv7YNDz8xj4-57" value="" style="endArrow=none;html=1;rounded=0;fontFamily=Helvetica;fontSize=12;fontColor=default;" parent="1" source="X9CcGSQdcjv7YNDz8xj4-16" target="X9CcGSQdcjv7YNDz8xj4-39" edge="1">
          <mxGeometry relative="1" as="geometry">
            <mxPoint x="330" y="370" as="sourcePoint" />
            <mxPoint x="490" y="370" as="targetPoint" />
          </mxGeometry>
        </mxCell>
        <mxCell id="X9CcGSQdcjv7YNDz8xj4-58" value="Suddivisione" style="shape=rhombus;perimeter=rhombusPerimeter;whiteSpace=wrap;html=1;align=center;shadow=1;strokeColor=default;verticalAlign=middle;fontFamily=Helvetica;fontSize=12;fontColor=default;fillColor=default;" parent="1" vertex="1">
          <mxGeometry x="440" y="410" width="120" height="60" as="geometry" />
        </mxCell>
        <mxCell id="X9CcGSQdcjv7YNDz8xj4-59" value="" style="endArrow=none;html=1;rounded=0;fontFamily=Helvetica;fontSize=12;fontColor=default;entryX=0.5;entryY=0;entryDx=0;entryDy=0;" parent="1" source="X9CcGSQdcjv7YNDz8xj4-16" target="X9CcGSQdcjv7YNDz8xj4-58" edge="1">
          <mxGeometry relative="1" as="geometry">
            <mxPoint x="330" y="370" as="sourcePoint" />
            <mxPoint x="490" y="370" as="targetPoint" />
          </mxGeometry>
        </mxCell>
        <mxCell id="X9CcGSQdcjv7YNDz8xj4-60" value="" style="endArrow=none;html=1;rounded=0;fontFamily=Helvetica;fontSize=12;fontColor=default;exitX=0.5;exitY=1;exitDx=0;exitDy=0;" parent="1" source="X9CcGSQdcjv7YNDz8xj4-58" target="X9CcGSQdcjv7YNDz8xj4-49" edge="1">
          <mxGeometry relative="1" as="geometry">
            <mxPoint x="330" y="470" as="sourcePoint" />
            <mxPoint x="490" y="470" as="targetPoint" />
          </mxGeometry>
        </mxCell>
        <mxCell id="X9CcGSQdcjv7YNDz8xj4-61" value="" style="endArrow=none;html=1;rounded=0;fontFamily=Helvetica;fontSize=12;fontColor=default;" parent="1" source="X9CcGSQdcjv7YNDz8xj4-16" target="X9CcGSQdcjv7YNDz8xj4-18" edge="1">
          <mxGeometry relative="1" as="geometry">
            <mxPoint x="340" y="470" as="sourcePoint" />
            <mxPoint x="490" y="470" as="targetPoint" />
          </mxGeometry>
        </mxCell>
        <mxCell id="X9CcGSQdcjv7YNDz8xj4-62" value="" style="endArrow=none;html=1;rounded=0;fontFamily=Helvetica;fontSize=12;fontColor=default;" parent="1" source="X9CcGSQdcjv7YNDz8xj4-16" target="X9CcGSQdcjv7YNDz8xj4-24" edge="1">
          <mxGeometry relative="1" as="geometry">
            <mxPoint x="330" y="470" as="sourcePoint" />
            <mxPoint x="490" y="470" as="targetPoint" />
          </mxGeometry>
        </mxCell>
        <mxCell id="X9CcGSQdcjv7YNDz8xj4-63" value="" style="endArrow=none;html=1;rounded=0;fontFamily=Helvetica;fontSize=12;fontColor=default;" parent="1" source="X9CcGSQdcjv7YNDz8xj4-16" target="X9CcGSQdcjv7YNDz8xj4-23" edge="1">
          <mxGeometry relative="1" as="geometry">
            <mxPoint x="330" y="470" as="sourcePoint" />
            <mxPoint x="490" y="470" as="targetPoint" />
          </mxGeometry>
        </mxCell>
        <mxCell id="X9CcGSQdcjv7YNDz8xj4-64" value="" style="endArrow=none;html=1;rounded=0;fontFamily=Helvetica;fontSize=12;fontColor=default;" parent="1" source="X9CcGSQdcjv7YNDz8xj4-16" target="X9CcGSQdcjv7YNDz8xj4-19" edge="1">
          <mxGeometry relative="1" as="geometry">
            <mxPoint x="330" y="470" as="sourcePoint" />
            <mxPoint x="490" y="470" as="targetPoint" />
          </mxGeometry>
        </mxCell>
        <mxCell id="X9CcGSQdcjv7YNDz8xj4-65" value="" style="endArrow=none;html=1;rounded=0;fontFamily=Helvetica;fontSize=12;fontColor=default;" parent="1" source="X9CcGSQdcjv7YNDz8xj4-16" target="X9CcGSQdcjv7YNDz8xj4-17" edge="1">
          <mxGeometry relative="1" as="geometry">
            <mxPoint x="330" y="470" as="sourcePoint" />
            <mxPoint x="490" y="470" as="targetPoint" />
          </mxGeometry>
        </mxCell>
        <mxCell id="X9CcGSQdcjv7YNDz8xj4-66" style="edgeStyle=orthogonalEdgeStyle;rounded=0;orthogonalLoop=1;jettySize=auto;html=1;exitX=0.5;exitY=1;exitDx=0;exitDy=0;fontFamily=Helvetica;fontSize=12;fontColor=default;" parent="1" source="X9CcGSQdcjv7YNDz8xj4-54" target="X9CcGSQdcjv7YNDz8xj4-54" edge="1">
          <mxGeometry relative="1" as="geometry" />
        </mxCell>
        <mxCell id="X9CcGSQdcjv7YNDz8xj4-67" value="" style="endArrow=none;html=1;rounded=0;fontFamily=Helvetica;fontSize=12;fontColor=default;exitX=1;exitY=0;exitDx=0;exitDy=0;" parent="1" source="X9CcGSQdcjv7YNDz8xj4-49" target="X9CcGSQdcjv7YNDz8xj4-50" edge="1">
          <mxGeometry relative="1" as="geometry">
            <mxPoint x="410" y="550" as="sourcePoint" />
            <mxPoint x="490" y="570" as="targetPoint" />
          </mxGeometry>
        </mxCell>
        <mxCell id="X9CcGSQdcjv7YNDz8xj4-68" value="" style="endArrow=none;html=1;rounded=0;fontFamily=Helvetica;fontSize=12;fontColor=default;" parent="1" source="X9CcGSQdcjv7YNDz8xj4-49" target="X9CcGSQdcjv7YNDz8xj4-54" edge="1">
          <mxGeometry relative="1" as="geometry">
            <mxPoint x="330" y="570" as="sourcePoint" />
            <mxPoint x="490" y="570" as="targetPoint" />
          </mxGeometry>
        </mxCell>
        <mxCell id="X9CcGSQdcjv7YNDz8xj4-69" value="" style="endArrow=none;html=1;rounded=0;fontFamily=Helvetica;fontSize=12;fontColor=default;exitX=1;exitY=1;exitDx=0;exitDy=0;" parent="1" source="X9CcGSQdcjv7YNDz8xj4-49" target="X9CcGSQdcjv7YNDz8xj4-55" edge="1">
          <mxGeometry relative="1" as="geometry">
            <mxPoint x="490" y="580" as="sourcePoint" />
            <mxPoint x="490" y="570" as="targetPoint" />
          </mxGeometry>
        </mxCell>
        <mxCell id="X9CcGSQdcjv7YNDz8xj4-73" value="" style="shape=link;html=1;rounded=0;fontFamily=Helvetica;fontSize=12;fontColor=default;" parent="1" target="X9CcGSQdcjv7YNDz8xj4-49" edge="1">
          <mxGeometry width="100" relative="1" as="geometry">
            <mxPoint x="410" y="610" as="sourcePoint" />
            <mxPoint x="460" y="570" as="targetPoint" />
          </mxGeometry>
        </mxCell>
        <mxCell id="X9CcGSQdcjv7YNDz8xj4-75" value="&lt;b&gt;d&lt;/b&gt;" style="ellipse;whiteSpace=wrap;html=1;aspect=fixed;shadow=1;strokeColor=default;align=center;verticalAlign=middle;fontFamily=Helvetica;fontSize=12;fontColor=default;fillColor=default;" parent="1" vertex="1">
          <mxGeometry x="395" y="600" width="30" height="30" as="geometry" />
        </mxCell>
        <mxCell id="X9CcGSQdcjv7YNDz8xj4-78" value="" style="endArrow=none;html=1;rounded=0;fontFamily=Helvetica;fontSize=12;fontColor=default;entryX=0;entryY=0;entryDx=0;entryDy=0;" parent="1" source="X9CcGSQdcjv7YNDz8xj4-75" target="X9CcGSQdcjv7YNDz8xj4-79" edge="1">
          <mxGeometry width="50" height="50" relative="1" as="geometry">
            <mxPoint x="144" y="590" as="sourcePoint" />
            <mxPoint x="414" y="710" as="targetPoint" />
          </mxGeometry>
        </mxCell>
        <mxCell id="X9CcGSQdcjv7YNDz8xj4-79" value="SessioneOnline" style="whiteSpace=wrap;html=1;align=center;shadow=1;strokeColor=default;verticalAlign=middle;fontFamily=Helvetica;fontSize=12;fontColor=default;fillColor=default;" parent="1" vertex="1">
          <mxGeometry x="610" y="680" width="100" height="40" as="geometry" />
        </mxCell>
        <mxCell id="X9CcGSQdcjv7YNDz8xj4-80" value="SessioneInPresenza" style="whiteSpace=wrap;html=1;align=center;shadow=1;strokeColor=default;verticalAlign=middle;fontFamily=Helvetica;fontSize=12;fontColor=default;fillColor=default;" parent="1" vertex="1">
          <mxGeometry x="175" y="680" width="130" height="40" as="geometry" />
        </mxCell>
        <mxCell id="X9CcGSQdcjv7YNDz8xj4-81" value="" style="endArrow=none;html=1;rounded=0;fontFamily=Helvetica;fontSize=12;fontColor=default;exitX=1;exitY=0;exitDx=0;exitDy=0;" parent="1" source="X9CcGSQdcjv7YNDz8xj4-80" target="X9CcGSQdcjv7YNDz8xj4-75" edge="1">
          <mxGeometry relative="1" as="geometry">
            <mxPoint x="330" y="570" as="sourcePoint" />
            <mxPoint x="490" y="570" as="targetPoint" />
          </mxGeometry>
        </mxCell>
        <mxCell id="X9CcGSQdcjv7YNDz8xj4-82" value="Partecipazione" style="shape=rhombus;perimeter=rhombusPerimeter;whiteSpace=wrap;html=1;align=center;shadow=1;strokeColor=default;verticalAlign=middle;fontFamily=Helvetica;fontSize=12;fontColor=default;fillColor=default;" parent="1" vertex="1">
          <mxGeometry x="180" y="520" width="120" height="60" as="geometry" />
        </mxCell>
        <mxCell id="X9CcGSQdcjv7YNDz8xj4-83" value="" style="endArrow=none;html=1;rounded=0;fontFamily=Helvetica;fontSize=12;fontColor=default;" parent="1" source="X9CcGSQdcjv7YNDz8xj4-82" target="X9CcGSQdcjv7YNDz8xj4-80" edge="1">
          <mxGeometry relative="1" as="geometry">
            <mxPoint x="330" y="570" as="sourcePoint" />
            <mxPoint x="490" y="570" as="targetPoint" />
          </mxGeometry>
        </mxCell>
        <mxCell id="X9CcGSQdcjv7YNDz8xj4-84" value="" style="endArrow=none;html=1;rounded=0;fontFamily=Helvetica;fontSize=12;fontColor=default;" parent="1" source="X9CcGSQdcjv7YNDz8xj4-9" target="X9CcGSQdcjv7YNDz8xj4-82" edge="1">
          <mxGeometry relative="1" as="geometry">
            <mxPoint x="330" y="570" as="sourcePoint" />
            <mxPoint x="490" y="570" as="targetPoint" />
          </mxGeometry>
        </mxCell>
        <mxCell id="X9CcGSQdcjv7YNDz8xj4-85" value="NumeroPartecipanti" style="ellipse;whiteSpace=wrap;html=1;align=center;shadow=1;strokeColor=default;verticalAlign=middle;fontFamily=Helvetica;fontSize=12;fontColor=default;fillColor=default;" parent="1" vertex="1">
          <mxGeometry x="30" y="585" width="130" height="50" as="geometry" />
        </mxCell>
        <mxCell id="X9CcGSQdcjv7YNDz8xj4-86" value="" style="endArrow=none;html=1;rounded=0;fontFamily=Helvetica;fontSize=12;fontColor=default;entryX=0;entryY=0;entryDx=0;entryDy=0;" parent="1" source="X9CcGSQdcjv7YNDz8xj4-85" target="X9CcGSQdcjv7YNDz8xj4-80" edge="1">
          <mxGeometry relative="1" as="geometry">
            <mxPoint x="330" y="670" as="sourcePoint" />
            <mxPoint x="490" y="670" as="targetPoint" />
          </mxGeometry>
        </mxCell>
        <mxCell id="X9CcGSQdcjv7YNDz8xj4-87" value="Ricetta" style="whiteSpace=wrap;html=1;align=center;shadow=1;strokeColor=default;verticalAlign=middle;fontFamily=Helvetica;fontSize=12;fontColor=default;fillColor=default;" parent="1" vertex="1">
          <mxGeometry x="190" y="920" width="100" height="40" as="geometry" />
        </mxCell>
        <mxCell id="X9CcGSQdcjv7YNDz8xj4-88" value="Realizza" style="shape=rhombus;perimeter=rhombusPerimeter;whiteSpace=wrap;html=1;align=center;shadow=1;strokeColor=default;verticalAlign=middle;fontFamily=Helvetica;fontSize=12;fontColor=default;fillColor=default;" parent="1" vertex="1">
          <mxGeometry x="180" y="800" width="120" height="60" as="geometry" />
        </mxCell>
        <mxCell id="X9CcGSQdcjv7YNDz8xj4-89" value="" style="endArrow=none;html=1;rounded=0;fontFamily=Helvetica;fontSize=12;fontColor=default;" parent="1" source="X9CcGSQdcjv7YNDz8xj4-87" target="X9CcGSQdcjv7YNDz8xj4-88" edge="1">
          <mxGeometry relative="1" as="geometry">
            <mxPoint x="330" y="770" as="sourcePoint" />
            <mxPoint x="490" y="770" as="targetPoint" />
          </mxGeometry>
        </mxCell>
        <mxCell id="X9CcGSQdcjv7YNDz8xj4-90" value="" style="endArrow=none;html=1;rounded=0;fontFamily=Helvetica;fontSize=12;fontColor=default;" parent="1" source="X9CcGSQdcjv7YNDz8xj4-88" target="X9CcGSQdcjv7YNDz8xj4-80" edge="1">
          <mxGeometry relative="1" as="geometry">
            <mxPoint x="330" y="770" as="sourcePoint" />
            <mxPoint x="490" y="770" as="targetPoint" />
          </mxGeometry>
        </mxCell>
        <mxCell id="X9CcGSQdcjv7YNDz8xj4-91" value="idRicetta" style="ellipse;whiteSpace=wrap;html=1;align=center;fontStyle=4;shadow=1;strokeColor=default;verticalAlign=middle;fontFamily=Helvetica;fontSize=12;fontColor=default;fillColor=default;" parent="1" vertex="1">
          <mxGeometry x="45" y="870" width="100" height="40" as="geometry" />
        </mxCell>
        <mxCell id="X9CcGSQdcjv7YNDz8xj4-93" value="Nome" style="ellipse;whiteSpace=wrap;html=1;align=center;shadow=1;strokeColor=default;verticalAlign=middle;fontFamily=Helvetica;fontSize=12;fontColor=default;fillColor=default;" parent="1" vertex="1">
          <mxGeometry x="45" y="970" width="100" height="40" as="geometry" />
        </mxCell>
        <mxCell id="X9CcGSQdcjv7YNDz8xj4-94" value="Utilizza" style="shape=rhombus;perimeter=rhombusPerimeter;whiteSpace=wrap;html=1;align=center;shadow=1;strokeColor=default;verticalAlign=middle;fontFamily=Helvetica;fontSize=12;fontColor=default;fillColor=default;" parent="1" vertex="1">
          <mxGeometry x="360" y="910" width="120" height="60" as="geometry" />
        </mxCell>
        <mxCell id="X9CcGSQdcjv7YNDz8xj4-95" value="Ingrediente" style="whiteSpace=wrap;html=1;align=center;shadow=1;strokeColor=default;verticalAlign=middle;fontFamily=Helvetica;fontSize=12;fontColor=default;fillColor=default;" parent="1" vertex="1">
          <mxGeometry x="550" y="920" width="100" height="40" as="geometry" />
        </mxCell>
        <mxCell id="X9CcGSQdcjv7YNDz8xj4-96" value="idIngrediente" style="ellipse;whiteSpace=wrap;html=1;align=center;fontStyle=4;shadow=1;strokeColor=default;verticalAlign=middle;fontFamily=Helvetica;fontSize=12;fontColor=default;fillColor=default;" parent="1" vertex="1">
          <mxGeometry x="690" y="870" width="100" height="40" as="geometry" />
        </mxCell>
        <mxCell id="X9CcGSQdcjv7YNDz8xj4-97" value="Quantitá" style="ellipse;whiteSpace=wrap;html=1;align=center;shadow=1;strokeColor=default;verticalAlign=middle;fontFamily=Helvetica;fontSize=12;fontColor=default;fillColor=default;" parent="1" vertex="1">
          <mxGeometry x="690" y="970" width="100" height="40" as="geometry" />
        </mxCell>
        <mxCell id="X9CcGSQdcjv7YNDz8xj4-98" value="" style="endArrow=none;html=1;rounded=0;fontFamily=Helvetica;fontSize=12;fontColor=default;" parent="1" source="X9CcGSQdcjv7YNDz8xj4-87" target="X9CcGSQdcjv7YNDz8xj4-94" edge="1">
          <mxGeometry relative="1" as="geometry">
            <mxPoint x="330" y="870" as="sourcePoint" />
            <mxPoint x="490" y="870" as="targetPoint" />
          </mxGeometry>
        </mxCell>
        <mxCell id="X9CcGSQdcjv7YNDz8xj4-99" value="" style="endArrow=none;html=1;rounded=0;fontFamily=Helvetica;fontSize=12;fontColor=default;exitX=1;exitY=1;exitDx=0;exitDy=0;" parent="1" source="X9CcGSQdcjv7YNDz8xj4-95" target="X9CcGSQdcjv7YNDz8xj4-97" edge="1">
          <mxGeometry relative="1" as="geometry">
            <mxPoint x="650" y="1010" as="sourcePoint" />
            <mxPoint x="490" y="870" as="targetPoint" />
          </mxGeometry>
        </mxCell>
        <mxCell id="X9CcGSQdcjv7YNDz8xj4-101" value="" style="endArrow=none;html=1;rounded=0;fontFamily=Helvetica;fontSize=12;fontColor=default;exitX=1;exitY=0;exitDx=0;exitDy=0;" parent="1" source="X9CcGSQdcjv7YNDz8xj4-95" target="X9CcGSQdcjv7YNDz8xj4-96" edge="1">
          <mxGeometry relative="1" as="geometry">
            <mxPoint x="330" y="870" as="sourcePoint" />
            <mxPoint x="490" y="870" as="targetPoint" />
          </mxGeometry>
        </mxCell>
        <mxCell id="X9CcGSQdcjv7YNDz8xj4-103" value="" style="endArrow=none;html=1;rounded=0;fontFamily=Helvetica;fontSize=12;fontColor=default;entryX=0;entryY=0;entryDx=0;entryDy=0;" parent="1" source="X9CcGSQdcjv7YNDz8xj4-91" target="X9CcGSQdcjv7YNDz8xj4-87" edge="1">
          <mxGeometry relative="1" as="geometry">
            <mxPoint x="330" y="870" as="sourcePoint" />
            <mxPoint x="490" y="870" as="targetPoint" />
          </mxGeometry>
        </mxCell>
        <mxCell id="X9CcGSQdcjv7YNDz8xj4-104" value="" style="endArrow=none;html=1;rounded=0;fontFamily=Helvetica;fontSize=12;fontColor=default;entryX=0;entryY=1;entryDx=0;entryDy=0;" parent="1" source="X9CcGSQdcjv7YNDz8xj4-93" target="X9CcGSQdcjv7YNDz8xj4-87" edge="1">
          <mxGeometry relative="1" as="geometry">
            <mxPoint x="330" y="870" as="sourcePoint" />
            <mxPoint x="490" y="870" as="targetPoint" />
          </mxGeometry>
        </mxCell>
        <mxCell id="X9CcGSQdcjv7YNDz8xj4-105" value="&lt;font style=&quot;font-size: 24px;&quot;&gt;U&lt;/font&gt;" style="text;html=1;align=center;verticalAlign=middle;resizable=0;points=[];autosize=1;strokeColor=none;fillColor=none;fontFamily=Helvetica;fontSize=12;fontColor=default;rotation=55;" parent="1" vertex="1">
          <mxGeometry x="350" y="620" width="40" height="40" as="geometry" />
        </mxCell>
        <mxCell id="X9CcGSQdcjv7YNDz8xj4-109" value="&lt;font style=&quot;font-size: 24px;&quot;&gt;U&lt;/font&gt;" style="text;html=1;align=center;verticalAlign=middle;resizable=1;points=[];autosize=1;strokeColor=none;fillColor=none;fontFamily=Helvetica;fontSize=12;fontColor=default;flipH=0;flipV=1;movable=1;rotatable=1;deletable=1;editable=1;locked=0;connectable=1;rotation=-70;" parent="1" vertex="1">
          <mxGeometry x="470" y="620" width="30" height="40" as="geometry" />
        </mxCell>
        <mxCell id="X9CcGSQdcjv7YNDz8xj4-110" style="edgeStyle=orthogonalEdgeStyle;rounded=0;orthogonalLoop=1;jettySize=auto;html=1;exitX=0.5;exitY=1;exitDx=0;exitDy=0;fontFamily=Helvetica;fontSize=12;fontColor=default;" parent="1" source="X9CcGSQdcjv7YNDz8xj4-24" target="X9CcGSQdcjv7YNDz8xj4-24" edge="1">
          <mxGeometry relative="1" as="geometry" />
        </mxCell>
        <mxCell id="0uFSNHTxZhNWviipePCo-1" value="0..*" style="text;html=1;align=center;verticalAlign=middle;resizable=0;points=[];autosize=1;strokeColor=none;fillColor=none;" parent="1" vertex="1">
          <mxGeometry x="410" y="150" width="40" height="30" as="geometry" />
        </mxCell>
        <mxCell id="0uFSNHTxZhNWviipePCo-2" value="1" style="text;html=1;align=center;verticalAlign=middle;resizable=0;points=[];autosize=1;strokeColor=none;fillColor=none;" parent="1" vertex="1">
          <mxGeometry x="410" y="250" width="30" height="30" as="geometry" />
        </mxCell>
        <mxCell id="0uFSNHTxZhNWviipePCo-3" value="0..*" style="text;html=1;align=center;verticalAlign=middle;resizable=0;points=[];autosize=1;strokeColor=none;fillColor=none;" parent="1" vertex="1">
          <mxGeometry x="275" y="320" width="40" height="30" as="geometry" />
        </mxCell>
        <mxCell id="0uFSNHTxZhNWviipePCo-4" value="0..*" style="text;html=1;align=center;verticalAlign=middle;resizable=0;points=[];autosize=1;strokeColor=none;fillColor=none;" parent="1" vertex="1">
          <mxGeometry x="345" y="320" width="40" height="30" as="geometry" />
        </mxCell>
        <mxCell id="0uFSNHTxZhNWviipePCo-5" value="0..*" style="text;html=1;align=center;verticalAlign=middle;resizable=0;points=[];autosize=1;strokeColor=none;fillColor=none;" parent="1" vertex="1">
          <mxGeometry x="200" y="320" width="40" height="30" as="geometry" />
        </mxCell>
        <mxCell id="0uFSNHTxZhNWviipePCo-6" value="0..*" style="text;html=1;align=center;verticalAlign=middle;resizable=0;points=[];autosize=1;strokeColor=none;fillColor=none;" parent="1" vertex="1">
          <mxGeometry x="200" y="650" width="40" height="30" as="geometry" />
        </mxCell>
        <mxCell id="0uFSNHTxZhNWviipePCo-7" value="1..*" style="text;html=1;align=center;verticalAlign=middle;resizable=0;points=[];autosize=1;strokeColor=none;fillColor=none;" parent="1" vertex="1">
          <mxGeometry x="440" y="320" width="40" height="30" as="geometry" />
        </mxCell>
        <mxCell id="0uFSNHTxZhNWviipePCo-8" value="1" style="text;html=1;align=center;verticalAlign=middle;resizable=0;points=[];autosize=1;strokeColor=none;fillColor=none;" parent="1" vertex="1">
          <mxGeometry x="415" y="500" width="30" height="30" as="geometry" />
        </mxCell>
        <mxCell id="0uFSNHTxZhNWviipePCo-10" value="1..*" style="text;html=1;align=center;verticalAlign=middle;resizable=0;points=[];autosize=1;strokeColor=none;fillColor=none;" parent="1" vertex="1">
          <mxGeometry x="200" y="720" width="40" height="30" as="geometry" />
        </mxCell>
        <mxCell id="0uFSNHTxZhNWviipePCo-12" value="0..*" style="text;html=1;align=center;verticalAlign=middle;resizable=0;points=[];autosize=1;strokeColor=none;fillColor=none;" parent="1" vertex="1">
          <mxGeometry x="200" y="890" width="40" height="30" as="geometry" />
        </mxCell>
        <mxCell id="0uFSNHTxZhNWviipePCo-13" value="1..*" style="text;html=1;align=center;verticalAlign=middle;resizable=0;points=[];autosize=1;strokeColor=none;fillColor=none;" parent="1" vertex="1">
          <mxGeometry x="290" y="910" width="40" height="30" as="geometry" />
        </mxCell>
        <mxCell id="kUn_TqXdqcJszwuQaLx0-4" value="" style="endArrow=none;html=1;rounded=0;" parent="1" source="X9CcGSQdcjv7YNDz8xj4-94" target="X9CcGSQdcjv7YNDz8xj4-95" edge="1">
          <mxGeometry width="50" height="50" relative="1" as="geometry">
            <mxPoint x="390" y="690" as="sourcePoint" />
            <mxPoint x="610" y="950" as="targetPoint" />
          </mxGeometry>
        </mxCell>
        <mxCell id="kUn_TqXdqcJszwuQaLx0-5" value="0..*" style="text;html=1;align=center;verticalAlign=middle;resizable=0;points=[];autosize=1;strokeColor=none;fillColor=none;" parent="1" vertex="1">
          <mxGeometry x="510" y="910" width="40" height="30" as="geometry" />
        </mxCell>
      </root>
    </mxGraphModel>
  </diagram>
</mxfile>
